<svg width="111" height="29" viewBox="0 0 111 29" fill="none" xmlns="http://www.w3.org/2000/svg">
<path d="M9.82779 8.85164C8.23874 8.85164 6.73887 9.23268 5.40926 9.9056V0.110229H0V19.0978H0.0113503C0.231872 24.3238 4.54987 28.5072 9.82941 28.5072C15.2484 28.5072 19.6572 24.0984 19.6572 18.6794C19.6572 13.2604 15.2468 8.85164 9.82779 8.85164ZM9.82779 23.098C7.39071 23.098 5.40926 21.1149 5.40926 18.6794C5.40926 16.2423 7.39071 14.2609 9.82779 14.2609C12.2649 14.2609 14.2463 16.244 14.2463 18.6794C14.2463 21.1165 12.2649 23.098 9.82779 23.098Z" fill="white"/>
<path d="M25.9577 9.45361C24.4643 9.45361 23.2547 10.6649 23.2547 12.1566L22.9531 28.3439H28.9623L28.6607 12.1566C28.6607 10.6632 27.4511 9.45361 25.9577 9.45361Z" fill="white"/>
<path d="M43.0238 8.85156C37.7119 8.85156 33.3906 13.1728 33.3906 18.4848V28.345H38.7999V18.4848C38.7999 16.1563 40.6954 14.2608 43.0238 14.2608C45.3523 14.2608 47.2478 16.1563 47.2478 18.4848V28.345H52.6571V18.4848C52.6571 13.1728 48.3358 8.85156 43.0238 8.85156Z" fill="white"/>
<path d="M25.9595 7.30963C27.978 7.30963 29.6143 5.6733 29.6143 3.6548C29.6143 1.6363 27.978 0 25.9595 0C23.941 0 22.3047 1.6363 22.3047 3.6548C22.3047 5.6733 23.941 7.30963 25.9595 7.30963Z" fill="white"/>
<path d="M84.3033 7.30963C86.3218 7.30963 87.9581 5.6733 87.9581 3.6548C87.9581 1.6363 86.3218 0 84.3033 0C82.2848 0 80.6484 1.6363 80.6484 3.6548C80.6484 5.6733 82.2848 7.30963 84.3033 7.30963Z" fill="white"/>
<path d="M101.368 8.85181C96.0556 8.85181 91.7344 13.173 91.7344 18.485V28.3452H97.1436V18.485C97.1436 16.1566 99.0391 14.2611 101.368 14.2611C103.696 14.2611 105.592 16.1566 105.592 18.485V28.3452H111.001V18.485C111.001 13.173 106.68 8.85181 101.368 8.85181Z" fill="white"/>
<path d="M68.1715 8.85151C66.5825 8.85151 65.0826 9.23256 63.753 9.90548V0.110107H58.3438V19.0976H58.3551C58.5756 24.3237 62.8936 28.5071 68.1732 28.5071C73.5922 28.5071 78.001 24.0983 78.001 18.6793C78.001 13.2603 73.5922 8.85151 68.1715 8.85151ZM68.1715 23.0978C65.7345 23.0978 63.753 21.1148 63.753 18.6793C63.753 16.2422 65.7345 14.2608 68.1715 14.2608C70.6086 14.2608 72.5901 16.2438 72.5901 18.6793C72.5917 21.1164 70.6086 23.0978 68.1715 23.0978Z" fill="white"/>
<path d="M84.3015 9.45361C82.8081 9.45361 81.5985 10.6649 81.5985 12.1566L81.2969 28.3439H87.3061L87.0045 12.1566C87.0061 10.6632 85.7949 9.45361 84.3015 9.45361Z" fill="white"/>
</svg>
