<svg width="128" height="33" viewBox="0 0 128 33" fill="none" xmlns="http://www.w3.org/2000/svg">
<path d="M11.3328 10.207C9.50039 10.207 7.77083 10.6464 6.23761 11.4223V0.126953H0V22.0222H0.0130885C0.267379 28.0485 5.24662 32.8725 11.3346 32.8725C17.5835 32.8725 22.6674 27.7886 22.6674 21.5398C22.6674 15.2909 17.5816 10.207 11.3328 10.207ZM11.3328 26.6349C8.52249 26.6349 6.23761 24.3482 6.23761 21.5398C6.23761 18.7295 8.52249 16.4446 11.3328 16.4446C14.1431 16.4446 16.4279 18.7313 16.4279 21.5398C16.4279 24.35 14.1431 26.6349 11.3328 26.6349Z" fill="#3DBCC8"/>
<path d="M29.9335 10.9023C28.2114 10.9023 26.8165 12.2991 26.8165 14.0193L26.4688 32.6854H33.3982L33.0504 14.0193C33.0504 12.2972 31.6555 10.9023 29.9335 10.9023Z" fill="#3DBCC8"/>
<path d="M49.6084 10.207C43.483 10.207 38.5 15.19 38.5 21.3154V32.6856H44.7376V21.3154C44.7376 18.6304 46.9234 16.4446 49.6084 16.4446C52.2934 16.4446 54.4792 18.6304 54.4792 21.3154V32.6856H60.7168V21.3154C60.7168 15.19 55.7338 10.207 49.6084 10.207Z" fill="#3DBCC8"/>
<path d="M29.9335 8.42899C32.2611 8.42899 34.148 6.54209 34.148 4.21448C34.148 1.88688 32.2611 0 29.9335 0C27.6059 0 25.719 1.88688 25.719 4.21448C25.719 6.54209 27.6059 8.42899 29.9335 8.42899Z" fill="#3DBCC8"/>
<path d="M97.2145 8.42899C99.5421 8.42899 101.429 6.54209 101.429 4.21448C101.429 1.88688 99.5421 0 97.2145 0C94.8869 0 93 1.88688 93 4.21448C93 6.54209 94.8869 8.42899 97.2145 8.42899Z" fill="#3DBCC8"/>
<path d="M116.89 10.207C110.764 10.207 105.781 15.19 105.781 21.3154V32.6856H112.019V21.3154C112.019 18.6304 114.205 16.4446 116.89 16.4446C119.575 16.4446 121.76 18.6304 121.76 21.3154V32.6856H127.998V21.3154C127.998 15.19 123.015 10.207 116.89 10.207Z" fill="#3DBCC8"/>
<path d="M78.614 10.207C76.7816 10.207 75.0521 10.6464 73.5189 11.4223V0.126953H67.2812V22.0222H67.2943C67.5486 28.0485 72.5279 32.8725 78.6159 32.8725C84.8647 32.8725 89.9487 27.7886 89.9487 21.5398C89.9487 15.2909 84.8647 10.207 78.614 10.207ZM78.614 26.6349C75.8037 26.6349 73.5189 24.3482 73.5189 21.5398C73.5189 18.7295 75.8037 16.4446 78.614 16.4446C81.4243 16.4446 83.7092 18.7313 83.7092 21.5398C83.7111 24.35 81.4243 26.6349 78.614 26.6349Z" fill="#3DBCC8"/>
<path d="M97.2147 10.9023C95.4926 10.9023 94.0978 12.2991 94.0978 14.0193L93.75 32.6854H100.679L100.332 14.0193C100.334 12.2972 98.9368 10.9023 97.2147 10.9023Z" fill="#3DBCC8"/>
</svg>
